<?xml version="1.0" encoding="UTF-8"?>
<svg xmlns="http://www.w3.org/2000/svg" viewBox="0 0 320 180" width="320" height="180" role="img">
  <title>rizta Siachen White Mono</title>
  <desc>Original Athr+ illustration. Not an official product image.</desc>
  <path fill="#000000" fill-opacity="0.16" d="M40.0,168.0 A120.0,7.0 0 1 1 280.0,168.0 A120.0,7.0 0 1 1 40.0,168.0 Z"/>
  <path fill="#F6F4EF" stroke="#334155" stroke-width="1.6" stroke-linecap="round" stroke-linejoin="round" d="M42,132 L54,108 L132,102 L140,124 L176,130 L188,130 L196,78 L208,46 C228,32 262,34 286,54 L298,84 L276,128 L214,136 L96,140 Z"/>
  <path fill="#DDD8CE" d="M148,124 L196,120 L192,136 L150,138 Z"/>
  <path fill="#DDD8CE" d="M196,120 L208,52 C226,40 260,42 282,60 L292,88 L274,124 L210,130 Z"/>
  <path fill="#2C3138" d="M52,114 L130,104 L124,120 L56,128 Z"/>
  <path fill="#F7F8FA" d="M250,58 L284,72 L272,88 L242,76 Z"/>
  <path fill="none" stroke="#5C6773" stroke-width="6" stroke-linecap="round" stroke-linejoin="round" d="M250,70 L258,150"/>
  <path fill="none" stroke="#5C6773" stroke-width="5.5" stroke-linecap="round" stroke-linejoin="round" d="M230,48 L208,18"/>
  <path fill="none" stroke="#5C6773" stroke-width="5.5" stroke-linecap="round" stroke-linejoin="round" d="M180,26 L244,14"/>
  <path fill="#1C2128" d="M173.4,26.0 A4.6,4.6 0 1 1 182.6,26.0 A4.6,4.6 0 1 1 173.4,26.0 Z"/>
  <path fill="#1C2128" d="M241.4,14.0 A4.6,4.6 0 1 1 250.6,14.0 A4.6,4.6 0 1 1 241.4,14.0 Z"/>
  <path fill="#14181E" d="M45.0,150.0 A25.0,25.0 0 1 1 95.0,150.0 A25.0,25.0 0 1 1 45.0,150.0 Z"/>
  <path fill="#2C343F" d="M54.5,150.0 A15.5,15.5 0 1 1 85.5,150.0 A15.5,15.5 0 1 1 54.5,150.0 Z"/>
  <path fill="#E7EDF3" d="M64.5,150.0 A5.5,5.5 0 1 1 75.5,150.0 A5.5,5.5 0 1 1 64.5,150.0 Z"/>
  <path fill="#14181E" d="M233.0,150.0 A25.0,25.0 0 1 1 283.0,150.0 A25.0,25.0 0 1 1 233.0,150.0 Z"/>
  <path fill="#2C343F" d="M242.5,150.0 A15.5,15.5 0 1 1 273.5,150.0 A15.5,15.5 0 1 1 242.5,150.0 Z"/>
  <path fill="#E7EDF3" d="M252.5,150.0 A5.5,5.5 0 1 1 263.5,150.0 A5.5,5.5 0 1 1 252.5,150.0 Z"/>
</svg>
